<mxfile host="app.diagrams.net" modified="2021-09-25T17:53:31.788Z" agent="5.0 (Windows NT 10.0; Win64; x64) AppleWebKit/537.36 (KHTML, like Gecko) Chrome/93.0.4577.82 Safari/537.36 Edg/93.0.961.52" etag="7buhhROUB2wi_OiPvICF" version="15.3.2" type="github">
  <diagram id="rkHxnY35oO0L7jh-mFel" name="Page-1">
    <mxGraphModel dx="1422" dy="762" grid="1" gridSize="10" guides="1" tooltips="1" connect="1" arrows="1" fold="1" page="1" pageScale="1" pageWidth="827" pageHeight="1169" math="0" shadow="0">
      <root>
        <mxCell id="0" />
        <mxCell id="1" parent="0" />
        <mxCell id="dmbnLEZxPD1mFedBcApV-13" value="EKS Cluster" style="points=[[0,0],[0.25,0],[0.5,0],[0.75,0],[1,0],[1,0.25],[1,0.5],[1,0.75],[1,1],[0.75,1],[0.5,1],[0.25,1],[0,1],[0,0.75],[0,0.5],[0,0.25]];outlineConnect=0;gradientColor=none;html=1;whiteSpace=wrap;fontSize=12;fontStyle=0;shape=mxgraph.aws4.group;grIcon=mxgraph.aws4.group_elastic_beanstalk;strokeColor=#D86613;fillColor=none;verticalAlign=top;align=left;spacingLeft=30;fontColor=#D86613;dashed=0;" vertex="1" parent="1">
          <mxGeometry x="399" y="176" width="320" height="280" as="geometry" />
        </mxCell>
        <mxCell id="dmbnLEZxPD1mFedBcApV-15" value="App Mesh" style="fillColor=none;strokeColor=#5A6C86;dashed=1;verticalAlign=top;fontStyle=0;fontColor=#5A6C86;" vertex="1" parent="1">
          <mxGeometry x="409" y="216" width="300" height="230" as="geometry" />
        </mxCell>
        <mxCell id="dmbnLEZxPD1mFedBcApV-10" style="rounded=0;orthogonalLoop=1;jettySize=auto;html=1;entryX=0;entryY=0.5;entryDx=0;entryDy=0;entryPerimeter=0;startArrow=classic;startFill=1;" edge="1" parent="1" source="dmbnLEZxPD1mFedBcApV-21" target="dmbnLEZxPD1mFedBcApV-3">
          <mxGeometry relative="1" as="geometry" />
        </mxCell>
        <mxCell id="dmbnLEZxPD1mFedBcApV-11" style="edgeStyle=none;rounded=0;orthogonalLoop=1;jettySize=auto;html=1;entryX=0;entryY=0.5;entryDx=0;entryDy=0;entryPerimeter=0;startArrow=classic;startFill=1;" edge="1" parent="1" source="dmbnLEZxPD1mFedBcApV-21" target="dmbnLEZxPD1mFedBcApV-4">
          <mxGeometry relative="1" as="geometry" />
        </mxCell>
        <mxCell id="dmbnLEZxPD1mFedBcApV-82" value="" style="edgeStyle=none;rounded=0;orthogonalLoop=1;jettySize=auto;html=1;startArrow=none;startFill=0;entryX=0;entryY=0.5;entryDx=0;entryDy=0;entryPerimeter=0;" edge="1" parent="1" source="dmbnLEZxPD1mFedBcApV-2" target="dmbnLEZxPD1mFedBcApV-80">
          <mxGeometry relative="1" as="geometry" />
        </mxCell>
        <mxCell id="dmbnLEZxPD1mFedBcApV-2" value="" style="sketch=0;points=[[0,0,0],[0.25,0,0],[0.5,0,0],[0.75,0,0],[1,0,0],[0,1,0],[0.25,1,0],[0.5,1,0],[0.75,1,0],[1,1,0],[0,0.25,0],[0,0.5,0],[0,0.75,0],[1,0.25,0],[1,0.5,0],[1,0.75,0]];outlineConnect=0;fontColor=#232F3E;gradientColor=#945DF2;gradientDirection=north;fillColor=#5A30B5;strokeColor=#ffffff;dashed=0;verticalLabelPosition=bottom;verticalAlign=top;align=center;html=1;fontSize=12;fontStyle=0;aspect=fixed;shape=mxgraph.aws4.resourceIcon;resIcon=mxgraph.aws4.api_gateway;" vertex="1" parent="1">
          <mxGeometry x="200" y="696" width="78" height="78" as="geometry" />
        </mxCell>
        <mxCell id="dmbnLEZxPD1mFedBcApV-3" value="" style="sketch=0;points=[[0,0,0],[0.25,0,0],[0.5,0,0],[0.75,0,0],[1,0,0],[0,1,0],[0.25,1,0],[0.5,1,0],[0.75,1,0],[1,1,0],[0,0.25,0],[0,0.5,0],[0,0.75,0],[1,0.25,0],[1,0.5,0],[1,0.75,0]];outlineConnect=0;fontColor=#232F3E;gradientColor=#F54749;gradientDirection=north;fillColor=#C7131F;strokeColor=#ffffff;dashed=0;verticalLabelPosition=bottom;verticalAlign=top;align=center;html=1;fontSize=12;fontStyle=0;aspect=fixed;shape=mxgraph.aws4.resourceIcon;resIcon=mxgraph.aws4.cognito;" vertex="1" parent="1">
          <mxGeometry x="279" y="376" width="78" height="78" as="geometry" />
        </mxCell>
        <mxCell id="dmbnLEZxPD1mFedBcApV-17" style="edgeStyle=none;rounded=0;orthogonalLoop=1;jettySize=auto;html=1;startArrow=none;startFill=0;" edge="1" parent="1" source="dmbnLEZxPD1mFedBcApV-4" target="dmbnLEZxPD1mFedBcApV-6">
          <mxGeometry relative="1" as="geometry" />
        </mxCell>
        <mxCell id="dmbnLEZxPD1mFedBcApV-4" value="" style="sketch=0;points=[[0,0,0],[0.25,0,0],[0.5,0,0],[0.75,0,0],[1,0,0],[0,1,0],[0.25,1,0],[0.5,1,0],[0.75,1,0],[1,1,0],[0,0.25,0],[0,0.5,0],[0,0.75,0],[1,0.25,0],[1,0.5,0],[1,0.75,0]];outlineConnect=0;fontColor=#232F3E;gradientColor=#945DF2;gradientDirection=north;fillColor=#5A30B5;strokeColor=#ffffff;dashed=0;verticalLabelPosition=bottom;verticalAlign=top;align=center;html=1;fontSize=12;fontStyle=0;aspect=fixed;shape=mxgraph.aws4.resourceIcon;resIcon=mxgraph.aws4.elastic_load_balancing;" vertex="1" parent="1">
          <mxGeometry x="279" y="176" width="78" height="78" as="geometry" />
        </mxCell>
        <mxCell id="dmbnLEZxPD1mFedBcApV-5" value="" style="sketch=0;outlineConnect=0;fontColor=#232F3E;gradientColor=none;fillColor=#A166FF;strokeColor=none;dashed=0;verticalLabelPosition=bottom;verticalAlign=top;align=center;html=1;fontSize=12;fontStyle=0;aspect=fixed;pointerEvents=1;shape=mxgraph.aws4.mesh;" vertex="1" parent="1">
          <mxGeometry x="409" y="216" width="27.35" height="27" as="geometry" />
        </mxCell>
        <mxCell id="dmbnLEZxPD1mFedBcApV-20" value="" style="edgeStyle=none;rounded=0;orthogonalLoop=1;jettySize=auto;html=1;startArrow=none;startFill=0;dashed=1;" edge="1" parent="1" source="dmbnLEZxPD1mFedBcApV-6" target="dmbnLEZxPD1mFedBcApV-18">
          <mxGeometry relative="1" as="geometry" />
        </mxCell>
        <mxCell id="dmbnLEZxPD1mFedBcApV-6" value="" style="sketch=0;outlineConnect=0;fontColor=#232F3E;gradientColor=none;fillColor=#A166FF;strokeColor=none;dashed=0;verticalLabelPosition=bottom;verticalAlign=top;align=center;html=1;fontSize=12;fontStyle=0;aspect=fixed;pointerEvents=1;shape=mxgraph.aws4.virtual_gateway;" vertex="1" parent="1">
          <mxGeometry x="420" y="281" width="78" height="78" as="geometry" />
        </mxCell>
        <mxCell id="dmbnLEZxPD1mFedBcApV-12" style="edgeStyle=none;rounded=0;orthogonalLoop=1;jettySize=auto;html=1;entryX=0.5;entryY=0;entryDx=0;entryDy=0;entryPerimeter=0;startArrow=classic;startFill=1;" edge="1" parent="1" source="dmbnLEZxPD1mFedBcApV-8" target="dmbnLEZxPD1mFedBcApV-3">
          <mxGeometry relative="1" as="geometry" />
        </mxCell>
        <mxCell id="dmbnLEZxPD1mFedBcApV-8" value="ALB" style="text;html=1;align=center;verticalAlign=middle;resizable=0;points=[];autosize=1;strokeColor=none;fillColor=none;" vertex="1" parent="1">
          <mxGeometry x="298" y="254" width="40" height="20" as="geometry" />
        </mxCell>
        <mxCell id="dmbnLEZxPD1mFedBcApV-9" value="Cognito" style="text;html=1;align=center;verticalAlign=middle;resizable=0;points=[];autosize=1;strokeColor=none;fillColor=none;" vertex="1" parent="1">
          <mxGeometry x="288" y="454" width="60" height="20" as="geometry" />
        </mxCell>
        <mxCell id="dmbnLEZxPD1mFedBcApV-14" value="" style="sketch=0;points=[[0,0,0],[0.25,0,0],[0.5,0,0],[0.75,0,0],[1,0,0],[0,1,0],[0.25,1,0],[0.5,1,0],[0.75,1,0],[1,1,0],[0,0.25,0],[0,0.5,0],[0,0.75,0],[1,0.25,0],[1,0.5,0],[1,0.75,0]];outlineConnect=0;fontColor=#232F3E;gradientColor=#F78E04;gradientDirection=north;fillColor=#D05C17;strokeColor=#ffffff;dashed=0;verticalLabelPosition=bottom;verticalAlign=top;align=center;html=1;fontSize=12;fontStyle=0;aspect=fixed;shape=mxgraph.aws4.resourceIcon;resIcon=mxgraph.aws4.eks;" vertex="1" parent="1">
          <mxGeometry x="399" y="176" width="30" height="30" as="geometry" />
        </mxCell>
        <mxCell id="dmbnLEZxPD1mFedBcApV-16" value="Virtual Gateway" style="text;html=1;align=center;verticalAlign=middle;resizable=0;points=[];autosize=1;strokeColor=none;fillColor=none;" vertex="1" parent="1">
          <mxGeometry x="409" y="361" width="100" height="20" as="geometry" />
        </mxCell>
        <mxCell id="dmbnLEZxPD1mFedBcApV-18" value="" style="sketch=0;points=[[0,0,0],[0.25,0,0],[0.5,0,0],[0.75,0,0],[1,0,0],[0,1,0],[0.25,1,0],[0.5,1,0],[0.75,1,0],[1,1,0],[0,0.25,0],[0,0.5,0],[0,0.75,0],[1,0.25,0],[1,0.5,0],[1,0.75,0]];outlineConnect=0;fontColor=#232F3E;gradientColor=#F78E04;gradientDirection=north;fillColor=#D05C17;strokeColor=#ffffff;dashed=0;verticalLabelPosition=bottom;verticalAlign=top;align=center;html=1;fontSize=12;fontStyle=0;aspect=fixed;shape=mxgraph.aws4.resourceIcon;resIcon=mxgraph.aws4.containers;" vertex="1" parent="1">
          <mxGeometry x="599" y="283" width="78" height="78" as="geometry" />
        </mxCell>
        <mxCell id="dmbnLEZxPD1mFedBcApV-19" value="Application in Mesh" style="text;html=1;align=center;verticalAlign=middle;resizable=0;points=[];autosize=1;strokeColor=none;fillColor=none;" vertex="1" parent="1">
          <mxGeometry x="578" y="361" width="120" height="20" as="geometry" />
        </mxCell>
        <mxCell id="dmbnLEZxPD1mFedBcApV-21" value="" style="sketch=0;outlineConnect=0;fontColor=#232F3E;gradientColor=none;fillColor=#232F3E;strokeColor=none;dashed=0;verticalLabelPosition=bottom;verticalAlign=top;align=center;html=1;fontSize=12;fontStyle=0;aspect=fixed;pointerEvents=1;shape=mxgraph.aws4.user;" vertex="1" parent="1">
          <mxGeometry x="79" y="278" width="78" height="78" as="geometry" />
        </mxCell>
        <mxCell id="dmbnLEZxPD1mFedBcApV-22" value="User" style="text;html=1;align=center;verticalAlign=middle;resizable=0;points=[];autosize=1;strokeColor=none;fillColor=none;" vertex="1" parent="1">
          <mxGeometry x="99" y="356" width="40" height="20" as="geometry" />
        </mxCell>
        <mxCell id="dmbnLEZxPD1mFedBcApV-61" value="EKS Cluster" style="points=[[0,0],[0.25,0],[0.5,0],[0.75,0],[1,0],[1,0.25],[1,0.5],[1,0.75],[1,1],[0.75,1],[0.5,1],[0.25,1],[0,1],[0,0.75],[0,0.5],[0,0.25]];outlineConnect=0;gradientColor=none;html=1;whiteSpace=wrap;fontSize=12;fontStyle=0;shape=mxgraph.aws4.group;grIcon=mxgraph.aws4.group_elastic_beanstalk;strokeColor=#D86613;fillColor=none;verticalAlign=top;align=left;spacingLeft=30;fontColor=#D86613;dashed=0;" vertex="1" parent="1">
          <mxGeometry x="480" y="696" width="320" height="280" as="geometry" />
        </mxCell>
        <mxCell id="dmbnLEZxPD1mFedBcApV-62" value="App Mesh" style="fillColor=none;strokeColor=#5A6C86;dashed=1;verticalAlign=top;fontStyle=0;fontColor=#5A6C86;" vertex="1" parent="1">
          <mxGeometry x="490" y="736" width="300" height="230" as="geometry" />
        </mxCell>
        <mxCell id="dmbnLEZxPD1mFedBcApV-63" style="rounded=0;orthogonalLoop=1;jettySize=auto;html=1;entryX=0;entryY=0.5;entryDx=0;entryDy=0;entryPerimeter=0;startArrow=classic;startFill=1;" edge="1" parent="1" source="dmbnLEZxPD1mFedBcApV-78" target="dmbnLEZxPD1mFedBcApV-65">
          <mxGeometry relative="1" as="geometry" />
        </mxCell>
        <mxCell id="dmbnLEZxPD1mFedBcApV-64" style="edgeStyle=none;rounded=0;orthogonalLoop=1;jettySize=auto;html=1;entryX=0;entryY=0.5;entryDx=0;entryDy=0;entryPerimeter=0;startArrow=classic;startFill=1;" edge="1" parent="1" source="dmbnLEZxPD1mFedBcApV-78">
          <mxGeometry relative="1" as="geometry">
            <mxPoint x="200" y="735" as="targetPoint" />
          </mxGeometry>
        </mxCell>
        <mxCell id="dmbnLEZxPD1mFedBcApV-65" value="" style="sketch=0;points=[[0,0,0],[0.25,0,0],[0.5,0,0],[0.75,0,0],[1,0,0],[0,1,0],[0.25,1,0],[0.5,1,0],[0.75,1,0],[1,1,0],[0,0.25,0],[0,0.5,0],[0,0.75,0],[1,0.25,0],[1,0.5,0],[1,0.75,0]];outlineConnect=0;fontColor=#232F3E;gradientColor=#F54749;gradientDirection=north;fillColor=#C7131F;strokeColor=#ffffff;dashed=0;verticalLabelPosition=bottom;verticalAlign=top;align=center;html=1;fontSize=12;fontStyle=0;aspect=fixed;shape=mxgraph.aws4.resourceIcon;resIcon=mxgraph.aws4.cognito;" vertex="1" parent="1">
          <mxGeometry x="200" y="896" width="78" height="78" as="geometry" />
        </mxCell>
        <mxCell id="dmbnLEZxPD1mFedBcApV-66" style="edgeStyle=none;rounded=0;orthogonalLoop=1;jettySize=auto;html=1;startArrow=none;startFill=0;" edge="1" parent="1" target="dmbnLEZxPD1mFedBcApV-70">
          <mxGeometry relative="1" as="geometry">
            <mxPoint x="438" y="764.0425531914893" as="sourcePoint" />
          </mxGeometry>
        </mxCell>
        <mxCell id="dmbnLEZxPD1mFedBcApV-68" value="" style="sketch=0;outlineConnect=0;fontColor=#232F3E;gradientColor=none;fillColor=#A166FF;strokeColor=none;dashed=0;verticalLabelPosition=bottom;verticalAlign=top;align=center;html=1;fontSize=12;fontStyle=0;aspect=fixed;pointerEvents=1;shape=mxgraph.aws4.mesh;" vertex="1" parent="1">
          <mxGeometry x="490" y="736" width="27.35" height="27" as="geometry" />
        </mxCell>
        <mxCell id="dmbnLEZxPD1mFedBcApV-69" value="" style="edgeStyle=none;rounded=0;orthogonalLoop=1;jettySize=auto;html=1;startArrow=none;startFill=0;dashed=1;" edge="1" parent="1" source="dmbnLEZxPD1mFedBcApV-70" target="dmbnLEZxPD1mFedBcApV-76">
          <mxGeometry relative="1" as="geometry" />
        </mxCell>
        <mxCell id="dmbnLEZxPD1mFedBcApV-70" value="" style="sketch=0;outlineConnect=0;fontColor=#232F3E;gradientColor=none;fillColor=#A166FF;strokeColor=none;dashed=0;verticalLabelPosition=bottom;verticalAlign=top;align=center;html=1;fontSize=12;fontStyle=0;aspect=fixed;pointerEvents=1;shape=mxgraph.aws4.virtual_gateway;" vertex="1" parent="1">
          <mxGeometry x="501" y="801" width="78" height="78" as="geometry" />
        </mxCell>
        <mxCell id="dmbnLEZxPD1mFedBcApV-71" style="edgeStyle=none;rounded=0;orthogonalLoop=1;jettySize=auto;html=1;entryX=0.5;entryY=0;entryDx=0;entryDy=0;entryPerimeter=0;startArrow=classic;startFill=1;" edge="1" parent="1" source="dmbnLEZxPD1mFedBcApV-72" target="dmbnLEZxPD1mFedBcApV-65">
          <mxGeometry relative="1" as="geometry" />
        </mxCell>
        <mxCell id="dmbnLEZxPD1mFedBcApV-72" value="Api Gateway" style="text;html=1;align=center;verticalAlign=middle;resizable=0;points=[];autosize=1;strokeColor=none;fillColor=none;" vertex="1" parent="1">
          <mxGeometry x="199" y="774" width="80" height="20" as="geometry" />
        </mxCell>
        <mxCell id="dmbnLEZxPD1mFedBcApV-73" value="Cognito" style="text;html=1;align=center;verticalAlign=middle;resizable=0;points=[];autosize=1;strokeColor=none;fillColor=none;" vertex="1" parent="1">
          <mxGeometry x="209" y="974" width="60" height="20" as="geometry" />
        </mxCell>
        <mxCell id="dmbnLEZxPD1mFedBcApV-74" value="" style="sketch=0;points=[[0,0,0],[0.25,0,0],[0.5,0,0],[0.75,0,0],[1,0,0],[0,1,0],[0.25,1,0],[0.5,1,0],[0.75,1,0],[1,1,0],[0,0.25,0],[0,0.5,0],[0,0.75,0],[1,0.25,0],[1,0.5,0],[1,0.75,0]];outlineConnect=0;fontColor=#232F3E;gradientColor=#F78E04;gradientDirection=north;fillColor=#D05C17;strokeColor=#ffffff;dashed=0;verticalLabelPosition=bottom;verticalAlign=top;align=center;html=1;fontSize=12;fontStyle=0;aspect=fixed;shape=mxgraph.aws4.resourceIcon;resIcon=mxgraph.aws4.eks;" vertex="1" parent="1">
          <mxGeometry x="480" y="696" width="30" height="30" as="geometry" />
        </mxCell>
        <mxCell id="dmbnLEZxPD1mFedBcApV-75" value="Virtual Gateway" style="text;html=1;align=center;verticalAlign=middle;resizable=0;points=[];autosize=1;strokeColor=none;fillColor=none;" vertex="1" parent="1">
          <mxGeometry x="490" y="881" width="100" height="20" as="geometry" />
        </mxCell>
        <mxCell id="dmbnLEZxPD1mFedBcApV-76" value="" style="sketch=0;points=[[0,0,0],[0.25,0,0],[0.5,0,0],[0.75,0,0],[1,0,0],[0,1,0],[0.25,1,0],[0.5,1,0],[0.75,1,0],[1,1,0],[0,0.25,0],[0,0.5,0],[0,0.75,0],[1,0.25,0],[1,0.5,0],[1,0.75,0]];outlineConnect=0;fontColor=#232F3E;gradientColor=#F78E04;gradientDirection=north;fillColor=#D05C17;strokeColor=#ffffff;dashed=0;verticalLabelPosition=bottom;verticalAlign=top;align=center;html=1;fontSize=12;fontStyle=0;aspect=fixed;shape=mxgraph.aws4.resourceIcon;resIcon=mxgraph.aws4.containers;" vertex="1" parent="1">
          <mxGeometry x="680" y="803" width="78" height="78" as="geometry" />
        </mxCell>
        <mxCell id="dmbnLEZxPD1mFedBcApV-77" value="Application in Mesh" style="text;html=1;align=center;verticalAlign=middle;resizable=0;points=[];autosize=1;strokeColor=none;fillColor=none;" vertex="1" parent="1">
          <mxGeometry x="659" y="881" width="120" height="20" as="geometry" />
        </mxCell>
        <mxCell id="dmbnLEZxPD1mFedBcApV-78" value="" style="sketch=0;outlineConnect=0;fontColor=#232F3E;gradientColor=none;fillColor=#232F3E;strokeColor=none;dashed=0;verticalLabelPosition=bottom;verticalAlign=top;align=center;html=1;fontSize=12;fontStyle=0;aspect=fixed;pointerEvents=1;shape=mxgraph.aws4.user;" vertex="1" parent="1">
          <mxGeometry y="798" width="78" height="78" as="geometry" />
        </mxCell>
        <mxCell id="dmbnLEZxPD1mFedBcApV-79" value="User" style="text;html=1;align=center;verticalAlign=middle;resizable=0;points=[];autosize=1;strokeColor=none;fillColor=none;" vertex="1" parent="1">
          <mxGeometry x="20" y="876" width="40" height="20" as="geometry" />
        </mxCell>
        <mxCell id="dmbnLEZxPD1mFedBcApV-80" value="" style="sketch=0;points=[[0,0,0],[0.25,0,0],[0.5,0,0],[0.75,0,0],[1,0,0],[0,1,0],[0.25,1,0],[0.5,1,0],[0.75,1,0],[1,1,0],[0,0.25,0],[0,0.5,0],[0,0.75,0],[1,0.25,0],[1,0.5,0],[1,0.75,0]];outlineConnect=0;fontColor=#232F3E;gradientColor=#945DF2;gradientDirection=north;fillColor=#5A30B5;strokeColor=#ffffff;dashed=0;verticalLabelPosition=bottom;verticalAlign=top;align=center;html=1;fontSize=12;fontStyle=0;aspect=fixed;shape=mxgraph.aws4.resourceIcon;resIcon=mxgraph.aws4.elastic_load_balancing;" vertex="1" parent="1">
          <mxGeometry x="360" y="696" width="78" height="78" as="geometry" />
        </mxCell>
        <mxCell id="dmbnLEZxPD1mFedBcApV-81" value="Internal NLB" style="text;html=1;align=center;verticalAlign=middle;resizable=0;points=[];autosize=1;strokeColor=none;fillColor=none;" vertex="1" parent="1">
          <mxGeometry x="359" y="774" width="80" height="20" as="geometry" />
        </mxCell>
        <mxCell id="dmbnLEZxPD1mFedBcApV-83" value="&lt;font style=&quot;font-size: 40px&quot;&gt;&lt;b&gt;JWT With ALB&lt;/b&gt;&lt;/font&gt;" style="text;html=1;align=center;verticalAlign=middle;resizable=0;points=[];autosize=1;strokeColor=none;fillColor=none;" vertex="1" parent="1">
          <mxGeometry x="269" y="90" width="290" height="30" as="geometry" />
        </mxCell>
        <mxCell id="dmbnLEZxPD1mFedBcApV-84" value="&lt;font style=&quot;font-size: 40px&quot;&gt;&lt;b&gt;JWT With Api Gateway&lt;/b&gt;&lt;/font&gt;" style="text;html=1;align=center;verticalAlign=middle;resizable=0;points=[];autosize=1;strokeColor=none;fillColor=none;" vertex="1" parent="1">
          <mxGeometry x="189.00000000000003" y="555" width="450" height="30" as="geometry" />
        </mxCell>
      </root>
    </mxGraphModel>
  </diagram>
</mxfile>
